[img]http://img521.imageshack.us/img521/1931/happyzl.jpg[/img]
[code]
Imdb: 
http://www.imdb.com/title/tt1402488/

Plot:Mumble's son, Erik, is struggling to realize his talents in the Emperor Penguin world. Meanwhile, Mumble and his family and friends discover a new threat their home -- one that will take everyone working together to save them

Source:
FYA

Notes:
Encoded video and added few filters so enjoy :)
Encoded by LoGiCurL

Greetz

Goes out to the people next door you know what i mean haha :D and to to the punjabi squad :P



Format                                   : AVI
Format/Info                              : Audio Video Interleave
File size                                : 1.06 GiB
Duration                                 : 1h 27mn
Overall bit rate                         : 1 737 Kbps

Video
ID                                       : 0
Format                                   : MPEG-4 Visual
Format profile                           : Advanced Simple@L5
Format settings, BVOP                    : 2
Format settings, QPel                    : No
Format settings, GMC                     : No warppoints
Format settings, Matrix                  : Default (H.263)
Codec ID                                 : XVID
Codec ID/Hint                            : XviD
Duration                                 : 1h 27mn
Bit rate                                 : 1 600 Kbps
Width                                    : 720 pixels
Height                                   : 304 pixels
Display aspect ratio                     : 2.35:1
Frame rate                               : 23.976 fps
Color space                              : YUV
Chroma subsampling                       : 4:2:0
Bit depth                                : 8 bits
Scan type                                : Progressive
Compression mode                         : Lossy
Bits/(Pixel*Frame)                       : 0.305
Stream size                              : 1 001 MiB (92%)
Writing library                          : XviD 63

Audio
ID                                       : 1
Format                                   : MPEG Audio
Format version                           : Version 1
Format profile                           : Layer 3
Codec ID                                 : 55
Codec ID/Hint                            : MP3
Duration                                 : 1h 27mn
Bit rate mode                            : Constant
Bit rate                                 : 128 Kbps
Channel(s)                               : 2 channels
Sampling rate                            : 44.1 KHz
Compression mode                         : Lossy
Stream size                              : 80.1 MiB (7%)

[/code]
Screens:
[img]http://img62.imageshack.us/img62/6483/vlcsnap2011112800h09m24.png[/img]
[img]http://img100.imageshack.us/img100/3757/vlcsnap2011112800h09m29.png[/img]
[img]http://img205.imageshack.us/img205/7613/vlcsnap2011112800h09m33.png[/img]
[img]http://img824.imageshack.us/img824/4544/vlcsnap2011112800h09m36.png[/img]
[img]http://img259.imageshack.us/img259/428/vlcsnap2011112800h09m39.png[/img]
[img]http://img585.imageshack.us/img585/5580/vlcsnap2011112800h09m43.png[/img]
[img]http://img502.imageshack.us/img502/7402/vlcsnap2011112800h09m47.png[/img]